<svg width="36" height="36" viewBox="0 0 36 36" fill="none" xmlns="http://www.w3.org/2000/svg">
<path d="M18.4091 7.62939e-06C8.69096 7.62939e-06 0.818176 7.87393 0.818176 17.5909C0.818176 27.3079 8.69209 35.1818 18.4091 35.1818C28.1272 35.1818 36 27.3079 36 17.5909C36 7.87393 28.1261 7.62939e-06 18.4091 7.62939e-06ZM27.0491 12.0515L24.1619 25.6566C23.9485 26.6213 23.3743 26.8551 22.573 26.4011L18.1753 23.1599L16.0542 25.2027C15.8204 25.4365 15.6218 25.6351 15.1678 25.6351L15.4799 21.159L23.6296 13.7958C23.9848 13.4837 23.5513 13.3067 23.0826 13.6188L13.0104 19.9594L8.6694 18.6044C7.7263 18.307 7.70473 17.6613 8.868 17.2073L25.8279 10.6669C26.6155 10.3832 27.3033 10.8587 27.0479 12.0503L27.0491 12.0515Z" fill="#F9E3EF"/>
</svg>
