<svg width="86" height="36" viewBox="0 0 86 36" fill="none" xmlns="http://www.w3.org/2000/svg">
<path d="M68.4091 7.62939e-06C58.691 7.62939e-06 50.8182 7.87393 50.8182 17.5909C50.8182 27.3079 58.6921 35.1818 68.4091 35.1818C78.1272 35.1818 86 27.3079 86 17.5909C86 7.87393 78.1261 7.62939e-06 68.4091 7.62939e-06ZM77.0491 12.0515L74.1619 25.6566C73.9485 26.6213 73.3743 26.8551 72.573 26.4011L68.1753 23.1599L66.0542 25.2027C65.8204 25.4365 65.6218 25.6351 65.1678 25.6351L65.4799 21.159L73.6296 13.7958C73.9848 13.4837 73.5513 13.3067 73.0826 13.6188L63.0104 19.9594L58.6694 18.6044C57.7263 18.307 57.7047 17.6613 58.868 17.2073L75.8279 10.6669C76.6155 10.3832 77.3033 10.8587 77.0479 12.0503L77.0491 12.0515Z" fill="#F9E3EF"/>
<path d="M17.5909 0C7.8756 0 0 7.8756 0 17.5909C0 27.3062 7.8756 35.1818 17.5909 35.1818C27.3062 35.1818 35.1818 27.3062 35.1818 17.5909C35.1818 7.8756 27.3062 0 17.5909 0ZM24.3561 19.8466C24.3561 19.8466 25.9118 21.3821 26.2947 22.0949C26.3057 22.1096 26.3112 22.1242 26.3149 22.1316C26.4707 22.3936 26.5073 22.597 26.4303 22.7491C26.3021 23.0019 25.8623 23.1265 25.712 23.1375H22.9635C22.7729 23.1375 22.3734 23.0881 21.8897 22.7546C21.5177 22.4944 21.1512 22.0674 20.7939 21.6515C20.2607 21.0321 19.7989 20.4971 19.3335 20.4971C19.2744 20.497 19.2156 20.5062 19.1594 20.5246C18.8076 20.6382 18.3568 21.1402 18.3568 22.4779C18.3568 22.8957 18.027 23.1357 17.7943 23.1357H16.5355C16.1067 23.1357 13.873 22.9855 11.894 20.8984C9.4716 18.3422 7.29107 13.2152 7.27274 13.1675C7.13531 12.8359 7.41933 12.6581 7.72901 12.6581H10.5051C10.8752 12.6581 10.9962 12.8835 11.0804 13.0832C11.1794 13.316 11.5422 14.2413 12.1377 15.2821C13.1034 16.9789 13.6953 17.6679 14.1698 17.6679C14.2588 17.6668 14.3462 17.6442 14.4245 17.6019C15.0439 17.2574 14.9285 15.0494 14.901 14.5913C14.901 14.5052 14.8991 13.6036 14.5821 13.1712C14.3549 12.8579 13.9683 12.7388 13.7337 12.6948C13.8287 12.5638 13.9537 12.4576 14.0984 12.3851C14.5235 12.1725 15.2894 12.1414 16.0499 12.1414H16.4732C17.2977 12.1524 17.5103 12.2055 17.809 12.2807C18.4137 12.4254 18.4265 12.8157 18.3733 14.1515C18.3568 14.5308 18.3404 14.9596 18.3404 15.4653C18.3404 15.5753 18.3349 15.6926 18.3349 15.8172C18.3165 16.497 18.2945 17.2684 18.7746 17.5854C18.8373 17.6247 18.9096 17.6456 18.9835 17.6459C19.1503 17.6459 19.6523 17.6459 21.012 15.3133C21.4313 14.5624 21.7957 13.7823 22.1022 12.9788C22.1297 12.9312 22.2104 12.7846 22.3056 12.7278C22.376 12.6919 22.4539 12.6737 22.5329 12.6746H25.7963C26.1518 12.6746 26.3955 12.7278 26.4413 12.8652C26.522 13.0832 26.4267 13.7484 24.9369 15.7659L24.2718 16.6436C22.9213 18.4137 22.9213 18.5034 24.3561 19.8466V19.8466Z" fill="#F9E3EF"/>
</svg>
