<svg width="11" height="11" viewBox="0 0 11 11" fill="none" xmlns="http://www.w3.org/2000/svg">
<path d="M8.74772 7.37983C8.35601 8.1718 7.72071 8.81731 6.9351 9.22162C6.15513 9.6221 5.26584 9.75734 4.40207 9.60683C3.53562 9.45451 2.7418 9.02568 2.13943 8.38453C1.53146 7.73734 1.14436 6.91404 1.0338 6.03299C0.921501 5.14994 1.09065 4.25397 1.51716 3.47264C1.93976 2.6973 2.60014 2.07813 3.40108 1.70632C4.19664 1.33786 5.0907 1.23902 5.94754 1.42482C6.80408 1.61048 7.50597 2.03273 8.08657 2.70037C8.15648 2.77445 8.42686 3.07354 8.65142 3.52496" stroke="#F9E3EF" stroke-opacity="0.6" stroke-width="1.5" stroke-linecap="round" stroke-linejoin="round"/>
<path d="M6.58789 3.56154L8.92137 3.98147L9.3339 1.60632" stroke="#F9E3EF" stroke-opacity="0.6" stroke-width="1.5" stroke-linecap="round" stroke-linejoin="round"/>
</svg>
